<?xml version="1.0" encoding="UTF-8"?>
<!DOCTYPE svg PUBLIC "-//W3C//DTD SVG 1.1//EN" "http://www.w3.org/Graphics/SVG/1.1/DTD/svg11.dtd">
<svg xmlns="http://www.w3.org/2000/svg" version="1.1" width="25px" height="35px" style="shape-rendering:geometricPrecision; text-rendering:geometricPrecision; image-rendering:optimizeQuality; fill-rule:evenodd; clip-rule:evenodd" xmlns:xlink="http://www.w3.org/1999/xlink">
<g><path style="opacity:0.302" fill="#6b6b6b" d="M 4.5,-0.5 C 5.5,-0.5 6.5,-0.5 7.5,-0.5C 7.5,0.166667 7.5,0.833333 7.5,1.5C 4.36558,2.10757 3.69891,3.77424 5.5,6.5C 4.18819,5.85493 3.18819,4.85493 2.5,3.5C 3.63023,2.37765 4.29689,1.04432 4.5,-0.5 Z"/></g>
<g><path style="opacity:1" fill="#202020" d="M 7.5,1.5 C 12.2979,5.79668 16.9645,10.2967 21.5,15C 22.448,15.4828 23.448,15.6495 24.5,15.5C 24.5,16.5 24.5,17.5 24.5,18.5C 18.5563,23.1057 12.8896,28.1057 7.5,33.5C 6.39105,33.4431 5.39105,33.1098 4.5,32.5C 2.53545,32.0517 2.20211,31.0517 3.5,29.5C 7.52012,25.8114 11.5201,22.1447 15.5,18.5C 16.8852,17.0527 16.5518,16.0527 14.5,15.5C 12.8333,14.5 11.5,13.1667 10.5,11.5C 10.5,9.5 9.5,8.5 7.5,8.5C 7.5,7.16667 6.83333,6.5 5.5,6.5C 3.69891,3.77424 4.36558,2.10757 7.5,1.5 Z"/></g>
<g><path style="opacity:0.753" fill="#8b8b8b" d="M 5.5,6.5 C 6.83333,6.5 7.5,7.16667 7.5,8.5C 6.5,8.16667 5.83333,7.5 5.5,6.5 Z"/></g>
<g><path style="opacity:0.733" fill="#898989" d="M 7.5,8.5 C 9.5,8.5 10.5,9.5 10.5,11.5C 9.16667,10.8333 8.16667,9.83333 7.5,8.5 Z"/></g>
<g><path style="opacity:0.329" fill="#929292" d="M 14.5,15.5 C 16.5518,16.0527 16.8852,17.0527 15.5,18.5C 15.4431,17.391 15.1098,16.391 14.5,15.5 Z"/></g>
<g><path style="opacity:0.294" fill="#888888" d="M 4.5,32.5 C 5.39105,33.1098 6.39105,33.4431 7.5,33.5C 7.5,33.8333 7.5,34.1667 7.5,34.5C 6.5,34.5 5.5,34.5 4.5,34.5C 4.5,33.8333 4.5,33.1667 4.5,32.5 Z"/></g>
</svg>
